<svg xmlns="http://www.w3.org/2000/svg" xmlns:svg="http://www.w3.org/2000/svg" id="svg2" width="500" height="500" version="1.1"><metadata id="metadata7"/><g id="layer1" transform="translate(0,-552.36218)"><path style="color:#000;fill:none;stroke:#ececec;stroke-width:9.4157342699999997;stroke-opacity:.52127659;marker:none;visibility:visible;display:inline;overflow:visible;enable-background:accumulate;stroke-miterlimit:4;stroke-dasharray:none" id="path2996" d="m 500,250 a 250,250 0 1 1 -500,0 250,250 0 1 1 500,0 z" transform="matrix(0.84964165,0,0,0.84964165,37.589588,589.95179)"/><text style="font-size:64px;font-style:normal;font-variant:normal;font-weight:400;font-stretch:normal;line-height:125%;letter-spacing:0;word-spacing:0;fill:#f77;fill-opacity:1;stroke:none;font-family:Cooper Std Black;-inkscape-font-specification:Cooper Std Black" id="text3766" x="222.517" y="614.547" xml:space="preserve"><tspan id="tspan3768" x="222.517" y="614.547">N</tspan></text><text style="font-size:64px;font-style:normal;font-variant:normal;font-weight:400;font-stretch:normal;line-height:125%;letter-spacing:0;word-spacing:0;fill:#fff;fill-opacity:1;stroke:none;font-family:Cooper Std Black;-inkscape-font-specification:Cooper Std Black" id="text3791" x="-839.757" y="63.025" transform="matrix(0,-1,1,0,0,0)" xml:space="preserve"><tspan id="tspan3793" x="-839.757" y="63.025">W</tspan></text><text style="font-size:64px;font-style:normal;font-variant:normal;font-weight:400;font-stretch:normal;line-height:125%;letter-spacing:0;word-spacing:0;fill:#fff;fill-opacity:1;stroke:none;font-family:Cooper Std Black;-inkscape-font-specification:Cooper Std Black" id="text3795" x="-272.269" y="-990.177" transform="scale(-1,-1)" xml:space="preserve"><tspan id="tspan3797" x="-272.269" y="-990.177">S</tspan></text><text style="font-size:64px;font-style:normal;font-variant:normal;font-weight:400;font-stretch:normal;line-height:125%;letter-spacing:0;word-spacing:0;fill:#fff;fill-opacity:1;stroke:none;font-family:Cooper Std Black;-inkscape-font-specification:Cooper Std Black" id="text3803" x="778.413" y="-437.815" transform="matrix(0,1,-1,0,0,0)" xml:space="preserve"><tspan id="tspan3805" x="778.413" y="-437.815">E</tspan></text><path style="fill:#f77;stroke:none;stroke-width:1px;stroke-linecap:butt;stroke-linejoin:miter;stroke-opacity:1;fill-opacity:1" id="path3807" d="M 229.41176,200 250.67017,78.151262 271.92858,200 250.67017,233.61345 z" transform="translate(0,552.36218)"/></g></svg>