<svg xmlns="http://www.w3.org/2000/svg" xmlns:svg="http://www.w3.org/2000/svg" id="svg2" width="128" height="128" version="1.1"><defs id="defs4"><marker id="TriangleOutS" orient="auto" refX="0" refY="0" style="overflow:visible"><path id="path3912" d="M 5.77,0.0 L -2.88,5.0 L -2.88,-5.0 L 5.77,0.0 z" transform="scale(0.2)" style="fill-rule:evenodd;stroke:#000;stroke-width:1pt"/></marker><marker id="Arrow1Send" orient="auto" refX="0" refY="0" style="overflow:visible"><path id="path3779" d="M 0.0,0.0 L 5.0,-5.0 L -12.5,0.0 L 5.0,5.0 L 0.0,0.0 z" transform="scale(0.2) rotate(180) translate(6,0)" style="fill-rule:evenodd;stroke:#000;stroke-width:1pt"/></marker><marker id="Arrow2Sstart" orient="auto" refX="0" refY="0" style="overflow:visible"><path id="path3794" d="M 8.7185878,4.0337352 L -2.2072895,0.016013256 L 8.7185884,-4.0017078 C 6.9730900,-1.6296469 6.9831476,1.6157441 8.7185878,4.0337352 z" transform="scale(0.3) translate(-2.3,0)" style="fill-rule:evenodd;stroke-width:.625;stroke-linejoin:round"/></marker><marker id="Arrow2Send" orient="auto" refX="0" refY="0" style="overflow:visible"><path id="path3797" d="M 8.7185878,4.0337352 L -2.2072895,0.016013256 L 8.7185884,-4.0017078 C 6.9730900,-1.6296469 6.9831476,1.6157441 8.7185878,4.0337352 z" transform="scale(0.3) rotate(180) translate(-2.3,0)" style="fill-rule:evenodd;stroke-width:.625;stroke-linejoin:round"/></marker></defs><metadata id="metadata7"/><g id="layer1" transform="translate(0,-924.36218)"><path id="path3758" d="M 96.221109,942.90833 C 69.530382,926.31573 33.43988,933.25151 15.768376,958.353 6.8626103,971.0032 4.2869511,985.92799 7.3559963,999.69782 a 4.6269223,4.3479265 0 1 0 9.0413647,-1.79828 c -2.58285,-11.58822 -0.435316,-24.0761 7.081435,-34.75327 14.915328,-21.18647 45.107384,-26.96355 67.62312,-12.96639 a 4.6391054,4.359375 0 0 0 5.119193,-7.27155 z" style="font-size:medium;font-style:normal;font-variant:normal;font-weight:400;font-stretch:normal;text-indent:0;text-align:start;text-decoration:none;line-height:normal;letter-spacing:normal;word-spacing:normal;text-transform:none;direction:ltr;block-progression:tb;writing-mode:lr-tb;text-anchor:start;baseline-shift:baseline;color:#000;fill:#df1059;fill-opacity:1;stroke:none;stroke-width:8.69498348;marker:none;visibility:visible;display:inline;overflow:visible;enable-background:accumulate;font-family:Sans;-inkscape-font-specification:Sans"/><path id="path5326" d="m 105.68227,954.01694 -27.045977,-1.5432 14.955343,-21.24332 12.090634,22.78652 z" style="fill:#df1059;fill-opacity:1;fill-rule:evenodd;stroke:none"/><path id="path5318" d="m 118.96774,975.10928 a 4.6269223,4.3479265 0 0 0 -7.03846,4.61712 c 2.58285,11.58818 0.45363,24.05 -7.06309,34.7272 -14.915317,21.1864 -45.125707,26.9896 -67.641445,12.9924 a 4.6269223,4.3479265 0 1 0 -5.100904,7.2456 c 26.690727,16.5926 62.781265,9.6567 80.452769,-15.4447 8.90573,-12.6502 11.46314,-27.54901 8.39403,-41.31878 a 4.6269223,4.3479265 0 0 0 -2.0029,-2.81884 z" style="font-size:medium;font-style:normal;font-variant:normal;font-weight:400;font-stretch:normal;text-indent:0;text-align:start;text-decoration:none;line-height:normal;letter-spacing:normal;word-spacing:normal;text-transform:none;direction:ltr;block-progression:tb;writing-mode:lr-tb;text-anchor:start;baseline-shift:baseline;color:#000;fill:#df1059;fill-opacity:1;stroke:none;stroke-width:8.69498348;marker:none;visibility:visible;display:inline;overflow:visible;enable-background:accumulate;font-family:Sans;-inkscape-font-specification:Sans"/><path id="path5334" d="m 21.715998,1023.0241 29.603403,1.6907 -16.367973,23.2499 -13.23543,-24.9406 z" style="fill:#df1059;fill-opacity:1;fill-rule:evenodd;stroke:none"/></g></svg>